<svg width="21" height="21" viewBox="0 0 21 21" fill="none" xmlns="http://www.w3.org/2000/svg">
<path fill-rule="evenodd" clip-rule="evenodd" d="M10.5 0C4.70085 0 0 4.70085 0 10.5C0 12.4845 0.55125 14.343 1.5099 15.9264L0.5733 19.11C0.519524 19.2928 0.515985 19.4867 0.563057 19.6713C0.610128 19.8559 0.70607 20.0245 0.840797 20.1592C0.975525 20.2939 1.14406 20.3899 1.32869 20.4369C1.51331 20.484 1.70721 20.4805 1.89 20.4267L5.0736 19.4901C6.71021 20.4803 8.58713 21.0026 10.5 21C16.2991 21 21 16.2991 21 10.5C21 4.70085 16.2991 0 10.5 0ZM8.1249 12.8761C10.249 14.9992 12.2766 15.2796 12.9927 15.3058C14.0815 15.3457 15.142 14.5141 15.5547 13.5492C15.6068 13.4292 15.6257 13.2973 15.6095 13.1675C15.5932 13.0376 15.5424 12.9145 15.4623 12.811C14.8869 12.076 14.1088 11.5479 13.3486 11.0229C13.1899 10.9131 12.9949 10.8691 12.8044 10.9001C12.6139 10.931 12.4428 11.0345 12.327 11.1888L11.697 12.1495C11.6639 12.2012 11.6123 12.2382 11.5527 12.2531C11.4932 12.2679 11.4302 12.2594 11.3767 12.2293C10.9494 11.9847 10.3267 11.5689 9.87945 11.1216C9.43215 10.6743 9.04155 10.08 8.8221 9.67994C8.79489 9.62912 8.78703 9.57015 8.79996 9.51397C8.8129 9.45779 8.84575 9.40821 8.89245 9.3744L9.86265 8.6541C10.0011 8.53371 10.0905 8.3666 10.1137 8.1846C10.1369 8.0026 10.0924 7.81841 9.98865 7.6671C9.51825 6.9783 8.97015 6.1026 8.1753 5.52195C8.07272 5.44761 7.95256 5.40126 7.82663 5.38745C7.7007 5.37364 7.57335 5.39286 7.4571 5.4432C6.4911 5.8569 5.6553 6.9174 5.6952 8.00835C5.72145 8.72445 6.0018 10.752 8.1249 12.8761Z" fill="white"/>
</svg>
